<svg version="1.2" baseProfile="tiny-ps" xmlns="http://www.w3.org/2000/svg" viewBox="10 10 100 100" width="128" height="128">
	<title>safari-pinned-tab-svg</title>
	<style>
		tspan { white-space:pre }
		.shp0 { fill: #000000 } 
		.shp1 { fill: #ffffff } 
	</style>
	<path id="Shape 1" class="shp0" d="" />
	<path id="Shape 2" class="shp1" d="M64 126.5C29.44 126.5 1.5 98.56 1.5 64C1.5 29.44 29.44 1.5 64 1.5C98.56 1.5 126.5 29.44 126.5 64C126.5 98.56 98.56 126.5 64 126.5Z" />
	<g id="Layer">
		<path id="Layer" class="shp0" d="M96.3 29.52C94.76 29.67 94.18 29.74 92.94 29.91C90.82 30.21 89.58 30.43 87.83 30.79C85.66 31.24 84.38 31.56 82.74 32.05C79.8 32.94 77.29 33.91 74.34 35.3C73.81 35.56 73.69 35.63 73.65 35.7C73.63 35.73 71.7 43.11 69.76 50.55C69.43 51.84 69.14 52.92 69.13 52.96C69.11 53.01 69.08 53.03 69.06 52.99C69.05 52.99 69.04 52.8 69.02 52.59C68.98 51.81 68.77 47.43 68.73 46.64C68.7 45.87 68.66 44.93 68.58 43.54C68.57 43.22 68.55 42.83 68.54 42.66C68.54 42.48 68.51 41.98 68.49 41.53C68.46 41.08 68.43 40.41 68.41 40.02C68.38 39.26 68.34 38.75 68.33 38.69C68.32 38.66 68.3 38.65 68.27 38.66C68.18 38.68 66.27 39.95 65.41 40.55C64.74 41.02 64.16 41.44 63.55 41.9C62.73 42.52 60.71 44.15 60.68 44.21C60.66 44.25 60.61 45.01 60.5 47.38C60.42 49.1 60.24 52.84 60.11 55.71C59.98 58.57 59.85 61.3 59.83 61.77C59.81 62.23 59.79 62.65 59.78 62.69C59.76 62.82 59.72 62.81 59.68 62.68C59.62 62.47 59.19 60.78 58.59 58.48C58.27 57.22 57.74 55.19 57.42 53.97C57.1 52.74 56.66 51.03 56.44 50.17C56.22 49.31 56.02 48.58 56.01 48.56C55.99 48.52 55.99 48.52 55.94 48.55C55.86 48.6 54.45 50.06 53.95 50.59C52.66 51.98 51.4 53.44 50.36 54.75C49.31 56.05 48.11 57.62 48.01 57.8C47.97 57.88 47.98 57.96 48.09 58.24C48.14 58.38 48.48 59.32 48.85 60.32C49.21 61.32 50.11 63.77 50.83 65.76C52.34 69.89 52.28 69.72 52.26 69.74C52.26 69.75 52.23 69.74 52.21 69.73C52.18 69.72 51.38 68.66 50.42 67.39C47.1 62.97 45.76 61.2 45.73 61.18C45.69 61.16 45.63 61.24 45.31 61.75C44.32 63.32 43.66 64.52 42.85 66.22C41.84 68.35 41.01 70.33 40.1 72.79C39.01 75.71 38.04 78.89 37.43 81.58C37.15 82.82 36.8 84.52 36.65 85.42C36.59 85.75 36.53 86.06 36.5 86.1C36.48 86.14 36.36 86.28 36.24 86.42C35.65 87.05 33.94 89.02 32.96 90.18C32.02 91.31 30.92 92.69 29.96 93.98C29.16 95.04 29.11 95.11 29.01 95.35C28.86 95.65 28.84 95.75 28.85 96.18C28.85 96.51 28.86 96.58 28.91 96.76C29.07 97.39 29.5 97.91 30.09 98.19C30.41 98.34 30.61 98.39 31.03 98.39C31.44 98.39 31.64 98.35 31.97 98.19C32.35 98 32.51 97.84 33.06 97.09C33.53 96.44 35.43 94.04 36.07 93.27C36.55 92.68 37.28 91.83 38.06 90.93C39 89.85 39.06 89.78 39.62 89.21C39.89 88.94 40.48 88.32 40.94 87.84C41.64 87.1 43.55 85.1 48.79 79.62C50.49 77.85 59.55 68.37 63.74 63.99C66.04 61.58 68.87 58.62 70.03 57.41C71.19 56.2 72.36 54.98 72.63 54.69C72.9 54.41 74.06 53.2 75.2 52.01C84.09 42.7 85.16 41.59 85.21 41.59C85.21 41.59 85.22 41.59 85.22 41.61C85.22 41.63 84.28 42.77 81.61 45.99C81.05 46.66 79.89 48.05 79.04 49.08C78.18 50.1 76.86 51.7 76.1 52.62C75.33 53.54 74.29 54.79 73.79 55.4C73.28 56.01 72.12 57.4 71.22 58.49C69.56 60.48 68.49 61.77 64.78 66.24C63.68 67.56 62.37 69.14 61.87 69.74C61.37 70.34 60.1 71.87 59.04 73.15C57.98 74.43 56.49 76.22 55.72 77.14C54.96 78.06 53.62 79.68 52.74 80.74C51.86 81.79 50.25 83.73 49.17 85.04C46.14 88.68 46.18 88.63 46.23 88.65C46.33 88.7 49.11 88.16 50.69 87.8C54.53 86.91 58.34 85.63 61.71 84.09C63.44 83.31 66.08 81.94 67.13 81.29C67.9 80.8 70.3 79.05 71.58 78.02C73.61 76.39 75.26 74.96 76.71 73.57C78.53 71.81 79.25 71.09 80.38 69.88C81.23 68.98 81.37 68.81 81.32 68.77C81.31 68.75 78.62 67.78 74.38 66.25C72.64 65.62 71.2 65.09 71.19 65.07C71.16 65.05 71.16 65.04 71.19 65.03C71.21 65.02 71.54 65.03 71.91 65.05C72.28 65.07 74.16 65.16 76.07 65.25C77.99 65.35 80.05 65.45 80.64 65.48C81.24 65.51 82.07 65.54 82.5 65.56C82.93 65.58 83.45 65.61 83.64 65.62C83.94 65.64 84.01 65.64 84.06 65.62C84.19 65.55 85.73 63.56 86.79 62.08C89.04 58.92 90.14 57.08 91.86 53.62C92.34 52.64 92.53 52.23 93.08 51.01C94.77 47.21 95.45 45.43 96.65 41.76C97.77 38.32 98.24 36.54 99.02 32.91L99.25 31.84L99.25 31.45L99.25 31.07L99.17 30.85C99.13 30.73 99.04 30.55 98.98 30.44C98.83 30.2 98.49 29.86 98.29 29.74C97.79 29.45 97.4 29.41 96.3 29.52Z" />
	</g>
</svg>