<?xml version="1.0" encoding="UTF-8" standalone="no"?>
<!-- Created with Inkscape (http://www.inkscape.org/) -->

<svg
   version="1.1"
   id="svg283"
   width="1000"
   height="1000"
   viewBox="0 0 240 240"
   xmlns:xlink="http://www.w3.org/1999/xlink"
   xmlns="http://www.w3.org/2000/svg"
   xmlns:svg="http://www.w3.org/2000/svg">
   <defs
      id="defs287" />
   <rect width="100%" height="100%" fill="black" />
   <path
      transform="translate(20, 20)"
      style="fill:white"
      d="M 87.149048,194.02052 C 57.027495,178.27784 32.614869,157.75928 22.684871,139.83905 15.991145,127.75917 16,127.84504 16,75.009628 16,38.432055 16.290006,27.009171 17.25,25.774156 17.99256,24.818865 35.042546,19.222108 59.25,11.98741 L 100,-0.19123324 140.75,11.98741 c 24.20745,7.234698 41.25744,12.831455 42,13.786746 0.95999,1.235015 1.25,12.657899 1.25,49.235472 0,40.535342 -0.23619,48.436152 -1.58613,53.058872 -5.05071,17.29548 -21.64335,35.72826 -47.69941,52.98933 -11.75692,7.78848 -32.36207,18.96324 -34.884128,18.91865 -0.731683,-0.0129 -6.43826,-2.69311 -12.681284,-5.95596 z M 139.25,163.76615 171,141.87405 V 85.129695 28.385338 l -7,-3.11023 -7,-3.110229 V 80.045178 137.92548 L 151,142 l -6,4.07452 V 102.55166 59.02879 l -5.97148,-3.014395 C 135.7442,54.356478 132.5942,53 132.02852,53 c -0.6912,0 -1.03139,16.808363 -1.03727,51.25 l -0.009,51.25 -5.82124,3.75 C 121.9596,161.3125 119.03853,163 118.67002,163 118.30151,163 118,129.70648 118,89.014395 V 15.02879 l -5.97148,-3.014395 C 108.7442,10.356478 105.8192,9 105.52852,9 105.23783,9 105,49.076558 105,98.059017 c 0,70.969823 0.25389,88.910763 1.25,88.329123 0.6875,-0.40144 15.5375,-10.58133 33,-22.62199 z M 93.654881,12.321548 c -0.195925,-0.195925 -3.348424,1.043991 -7.005554,2.755369 L 80,18.188513 79.999898,44.344256 79.999796,70.5 62.265852,76.5 C 52.512182,79.8 43.962228,82.645496 43.265954,82.823324 42.26557,83.078822 42,76.835278 42,53.060752 V 22.974857 L 35,26.5 28,30.025143 V 86 141.97486 L 35,145.5 c 3.85,1.93883 7.011203,3.18199 7.024895,2.76257 0.01369,-0.41941 0.126192,-11.75631 0.25,-25.19311 L 42.5,98.638913 60.5,92.372518 C 70.4,88.926 78.8375,86.082245 79.25,86.053061 79.6625,86.023877 80,107.06722 80,132.81605 v 46.81605 l 6.75,2.9739 6.75,2.97389 0.255554,-86.451057 c 0.140554,-47.548082 0.09525,-86.611361 -0.100673,-86.807285 z"
      id="path342" />
</svg>